<?xml version="1.0" encoding="UTF-8" standalone="no"?>
<!-- Created with Inkscape (http://www.inkscape.org/) -->
<svg xmlns:rdf="http://www.w3.org/1999/02/22-rdf-syntax-ns#" xmlns="http://www.w3.org/2000/svg" xmlns:cc="http://web.resource.org/cc/" xmlns:dc="http://purl.org/dc/elements/1.1/" xmlns:svg="http://www.w3.org/2000/svg" xmlns:inkscape="http://www.inkscape.org/namespaces/inkscape" xmlns:sodipodi="http://sodipodi.sourceforge.net/DTD/sodipodi-0.dtd" xmlns:ns1="http://sozi.baierouge.fr" xmlns:xlink="http://www.w3.org/1999/xlink" id="svg3007" viewBox="0 0 526 288" version="1.1" inkscape:version="0.91 r13725">
  <path id="path3089" style="fill:#ffffff" d="m19.296 247.23-0.60833-1.5853 2.4823-1.9544c1.3653-1.0749 3.7515-2.2327 5.3027-2.5728l2.8204-0.61841-0.49222-0.79642-0.49222-0.79643 2.7422-6.0418c1.5082-3.323 3.0489-6.2739 3.4238-6.5577 1.6809-1.2721 4.2453-6.8747 11.333-24.76 2.3611-5.958 4.9065-12.225 5.6565-13.928 1.6345-3.7098 15.203-43.663 18.048-53.142 1.1051-3.6824 5.0075-15.284 8.6722-25.781 3.6646-10.497 7.2159-20.711 7.8916-22.697 1.4322-4.2092 3.6124-9.2605 6.3453-14.701l1.9432-3.8688h-1.4948c-0.82214 0-2.2243 0.72955-3.116 1.6212l-1.6212 1.6212 0.01579-2.395c0.0087-1.3172 0.35688-2.8857 0.77376-3.4854l0.75797-1.0904 8.7693-1.3371c11.175-1.7039 21.958-3.9978 27.761-5.9058l4.5478-1.4953 0.78344 0.81692 0.78344 0.81692-1.3625 8.7693c-1.2888 8.2948-2.9422 15.571-6.2127 27.34-1.7416 6.2672-10.43 38.234-12.338 45.394-4.6262 17.362-8.6295 29.991-13.39 42.243-4.0715 10.479-8.4655 23.236-11.923 34.617-8.3729 27.561-10.406 33.014-12.31 33.014-1.1113 0-5.2266-4.0932-5.2266-5.1986v-0.99149h1.9674 1.9674l4.2888-13.67c6.2458-19.907 12.392-37.831 14.594-42.557 4.7302-10.152 11.605-32.854 21.015-69.398 1.9385-7.5281 3.8191-14.164 4.1791-14.747 0.35999-0.58248 1.5589-4.6368 2.6642-9.0095 1.8032-7.1337 3.0371-12.72 5.9144-26.779l0.89739-4.3846h-0.69425c-0.38184 0-4.1476 0.8794-8.3682 1.9542-4.2207 1.0748-9.3818 2.2503-11.469 2.6121l-3.7952 0.65793-2.0382 1.7725c-1.121 0.97488-3.2357 3.9806-4.6993 6.6794l-2.6612 4.9069-5.287 15.211c-2.9078 8.366-11.058 32.338-18.11 53.272-7.0529 20.934-13.895 40.432-15.205 43.331-1.3097 2.8983-3.6914 8.7515-5.2929 13.007-2.5164 6.6871-6.8361 16.741-11.081 25.792-0.66537 1.4186-2.0719 3.8578-3.1257 5.4206l-1.9159 2.8414 1.4778 0.5671 1.4778 0.5671 15.065-0.4643 15.065-0.4643 1.1955 1.4405 1.1955 1.4405-1.2843 1.5475-1.2843 1.5475h-1.5661c-0.86137 0-3.5071-0.96939-5.8795-2.1542l-4.3134-2.1542-3.9212 1.6384-3.9212 1.6384h-5.6503-5.6503l-3.251 1.5113c-1.788 0.83121-5.2549 1.9494-7.7042 2.4849l-4.4532 0.97365-0.60833-1.5853zm375.61-9.5747-0.61901-3.095-1.6765-0.12217c-0.92206-0.0672-2.0247-0.0672-2.4502 0l-0.77376 0.12217v-1.6623-1.6623l4.1267-4.9289 4.1267-4.9289v-4.2415-4.2415h1.0317 1.0317l0.069 1.8054 0.069 1.8054 1.508-4.6426c1.9198-5.9104 6.7342-26.176 9.3137-39.204 0.9626-4.8618 4.3339-19.086 5.8685-24.76 0.84401-3.1208 2.0968-8.4321 2.7839-11.803 0.68714-3.3707 1.6324-6.8526 2.1006-7.7376 0.93947-1.7758 8.6318-32.323 9.7043-38.537 0.37156-2.1528 2.0782-8.8073 3.7926-14.788l3.1171-10.874-0.56075-1.4613-0.56074-1.4613h-1.5799-1.5799v-1.5035-1.5035l3.6108-2.8811 3.6109-2.8811 0.00003-1.3864 0.00003-1.3864 5.1269 0.70512 5.1269 0.70512 6.9954-1.6447c8.9787-2.111 38.766-7.0383 43.62-7.2154l2.5792-0.0941-0.15193 2.5792c-0.0836 1.4186-1.0934 6.0611-2.2441 10.317-1.1507 4.2557-3.7466 14.214-5.7688 22.129-2.0222 7.9153-4.7956 17.897-6.1631 22.181-1.3675 4.2844-3.5218 11.504-4.7873 16.043-3.9303 14.098-5.2452 18.497-6.1669 20.634-1.5065 3.4916-11.494 33.693-13.133 39.713-2.5853 9.4965-3.3 13.339-5.3531 28.781l-1.9738 14.847-1.3736 0.87075c-0.75548 0.47892-2.3253 0.87788-3.4885 0.88657l-2.115 0.0158-1.1943-1.1943-1.1943-1.1943-1.5858 1.3161-1.5858 1.316-2.0688-0.54102-2.0689-0.54102v0.86195 0.86195l-5.9322 1.1625c-3.2627 0.63938-11.898 2.6105-19.19 4.3803l-13.258 3.2178-0.85596 2.1409c-0.47077 1.1775-1.1291 3.4176-1.4628 4.978l-0.6069 2.8371h-2.5853-2.5853l-0.61901-3.095zm25.431-16.06c6.5254-1.4824 14.834-3.5486 18.463-4.5916l6.5982-1.8964 2.1711 1.4067 2.1711 1.4067 1.7516-1.2978 1.7516-1.2978 0.68047-5.0841c0.37425-2.7962 0.82848-5.3325 1.0094-5.6361 0.18092-0.30362 0.63979-3.3213 1.0197-6.7059 1.2594-11.22 6.3597-30.805 10.648-40.889 1.0453-2.458 4.5305-13.058 7.7448-23.555s6.7924-22.025 7.9514-25.617c3.1779-9.8493 8.7508-29.695 10.624-37.832 1.6528-7.18 4.7923-22.016 4.7923-22.646 0-0.4898-9.5533 0.42277-11.348 1.0841-1.4413 0.53092-18.594 3.4763-23.213 3.9861-1.9064 0.21038-10.683 1.7852-11.864 2.1287-1.4948 0.43484-4.8272 1.7645-6.1466 2.4526l-1.504 0.78431-1.2462 6.6209c-0.68538 3.6415-2.2577 10.335-3.4941 14.874-1.2364 4.5394-2.6314 10.715-3.1002 13.722-1.0998 7.0579-2.7138 13.777-6.3398 26.391-1.6117 5.607-4.0987 15.588-5.5266 22.181-1.4279 6.5927-3.0238 13.612-3.5465 15.598-1.3736 5.2193-5.8537 24.946-7.849 34.561-1.9477 9.3855-5.175 21.675-6.074 23.13-0.33208 0.53732-1.0074 3.1376-1.5008 5.7783l-0.89699 4.8014 2.2049-0.58209c1.2127-0.32017 7.5438-1.795 14.069-3.2774zm15.217-0.12655c-0.99299-0.25948-2.6179-0.25948-3.6109 0l-1.8054 0.47182h3.6109 3.6109l-1.8054-0.47182zm-269.59-6.6128c-1.3593-2.1994-1.5767-6.1685-1.5338-28.011l0.042-21.407h-0.97744-0.97746l-3.7032 6.448c-2.0368 3.5464-4.1237 7.1444-4.6375 7.9955-2.6385 4.3702-11.145 19.484-12.484 22.181l-1.5367 3.095h-2.0238-2.0238l0.28523-2.5792 0.28523-2.5792 7.9682-13.898c4.3825-7.6441 8.4325-14.684 8.9999-15.645 0.56742-0.96053 2.5904-4.3671 4.4954-7.5702l3.4637-5.8238-0.5307-0.53071-0.53071-0.53069-3.352 1.7334c-1.8436 0.95335-3.8598 2.1548-4.4805 2.6698-4.4347 3.6798-18.934 11.988-33.111 18.971l-7.2218 3.5577-2.5759 0.27976-2.5759 0.27976-0.29635-2.0634-0.29635-2.0634 6.4831-2.5052c3.5657-1.3779 9.1004-4.039 12.299-5.9136 3.1989-1.8746 7.0908-3.893 8.6486-4.4853 1.5579-0.59231 6.1366-3.2341 10.175-5.8708 4.0383-2.6366 8.8481-5.7583 10.688-6.9372 1.8402-1.1788 3.3491-2.5354 3.353-3.0145 0.008-1.0262-12.042-17.885-13.158-18.408-0.41963-0.19677-2.5657-2.2898-4.7691-4.6512l-4.0061-4.2934-0.13836-2.3951-0.13836-2.3951-1.7338 0.29077-1.7338 0.29078-1.0667-1.9931-1.0667-1.9931 1.7865-0.70266 1.7866-0.70266 9.4641 9.8893c5.2053 5.4391 11.678 12.905 14.385 16.591 2.7063 3.6857 5.2254 6.7013 5.5981 6.7013h0.67764l0.002-21.448 0.002-21.448 1.2205-2.2806c0.67219-1.2543 1.6693-2.2806 2.2168-2.2806h0.99539l0.10783 14.186c0.13206 17.372 0.45978 24.898 1.1126 25.551 0.69003 0.69003 6.2282-8.1172 9.5098-15.123 1.4997-3.2017 3.778-7.38 5.0629-9.2851s2.956-4.9726 3.7136-6.8167c0.75754-1.8441 1.7484-3.353 2.2019-3.353h0.82454l0.67979-3.095 0.67978-3.095h0.92874 0.92875l2.0404-3.9995 2.0404-3.9995 1.6305-0.6257 1.6305-0.62568 0.51889 1.3522 0.5189 1.3522-1.0738 2.8243c-0.59057 1.5534-1.0738 3.9547-1.0738 5.3363v2.512h-1.0317-1.0317v-2.1371-2.1371l-1.4114 1.4114c-0.77628 0.77627-1.7608 2.5504-2.1878 3.9425-0.81842 2.668-11.263 23.025-15.847 30.885l-2.697 4.625 3.2353-2.3037c1.7794-1.267 3.7052-2.3037 4.2796-2.3037s1.1991-0.35745 1.3883-0.79435c0.18914-0.4369 3.1294-2.62 6.534-4.8513s6.7476-4.6034 7.4291-5.2714l1.239-1.2145 3.6902-0.69228 3.6902-0.69228-0.5981-0.96773-0.59809-0.96774 1.6274 0.6245 1.6274 0.62451-1.1843 1.427c-0.65138 0.78487-1.7078 1.4378-2.3476 1.451-0.63981 0.0132-3.0203 1.7-5.29 3.7485s-5.2874 4.4689-6.7059 5.3786c-1.4186 0.9097-7.2218 5.0824-12.896 9.2728l-10.317 7.6188-0.79478 2.0848-0.79479 2.0848 2.0722 4.238c1.1397 2.3309 4.6758 7.4878 7.8579 11.46 3.1821 3.972 6.2216 8.0342 6.7544 9.0272l0.96874 1.8054 1.2533 0.004 1.2533 0.004 1.8911 4.5987 1.8911 4.5987-0.66236 1.0717c-0.3643 0.58894-1.2874 1.0712-2.0513 1.0712h-1.389l-5.4982-7.4797c-3.024-4.1138-5.9938-7.944-6.5995-8.5114-0.60574-0.56743-2.4304-3.0242-4.0549-5.4596l-2.9536-4.4279-0.68303 1.1052-0.68303 1.1052 0.39189 14.128 0.39188 14.128 1.2352 0.78522 1.2352 0.78522-1.0317 0.0146-1.0317 0.0146v9.0076 9.0076l-1.7092 0.33583-1.7093 0.33581-0.77139-1.2481zm232.62-3.4181c-0.23643-0.2339-0.27713-3.948-0.0905-8.2534l0.33946-7.8282h1.064 1.064l-0.6684 7.9483c-0.66416 7.8977-0.88488 8.9484-1.7086 8.1334zm-83.076-15.485-0.56291-1.4669 0.99133-1.8861c0.54522-1.0373 1.3178-3.8567 1.7167-6.2653l0.72541-4.3792 0.94192-0.58213 0.94191-0.58213 0.0481 1.3505 0.0481 1.3505 2.6791-5.1584c1.4735-2.8371 3.7045-6.5512 4.9578-8.2534 1.2533-1.7023 2.5826-3.7914 2.954-4.6426 0.37142-0.85114 2.517-4.3331 4.768-7.7376 2.251-3.4046 4.8174-7.475 5.7033-9.0455l1.6106-2.8554-1.2568-4.1948-1.2568-4.1948-10.901 0.72591-10.901 0.7259-1.8147 0.94925-1.8147 0.94925-3.8596-0.18588c-3.7514-0.18068-12.394 0.66238-17.947 1.7508l-2.7389 0.53678-0.70288-1.1373-0.70287-1.1373 1.1383-1.3716 1.1383-1.3716 6.4302-1.2713c10.341-2.0444 16.525-2.8389 31.191-4.007l8.2535-0.65737-0.0897-1.0317c-0.18992-2.183-2.8301-10.775-6.7062-21.824-2.2203-6.3291-4.0368-12.48-4.0368-13.67v-2.1624l-0.77377-0.0229c-0.42556-0.0126-1.9115-0.89734-3.3021-1.9661l-2.5284-1.9431 1.2767-1.5383 1.2767-1.5383 1.869 0.48876 1.869 0.48877 4.4412 8.3353 4.4412 8.3353 4.355 13.508 4.355 13.508 4.514-0.32366 4.514-0.32367 2.346-2.7714c1.2903-1.5243 3.9399-5.5967 5.8879-9.0499 3.8948-6.9043 10.629-17.155 11.804-17.966 0.41071-0.28371 1.0465-1.3283 1.4129-2.3213l0.66613-1.8054h1.9694 1.9694l1.1182 1.3473 1.1182 1.3473-4.0869 3.5298c-2.2478 1.9414-4.0869 3.9111-4.0869 4.3771 0 0.46597-1.857 3.643-4.1267 7.0601s-4.1267 6.4222-4.1267 6.6779c0 0.25576-1.2286 2.3215-2.7302 4.5906s-2.5462 4.2539-2.3213 4.4108c0.2249 0.15686 5.7478-0.004 12.273-0.35844 6.5254-0.35399 11.489-0.72389 11.03-0.82199l-0.83464-0.17842 0.68561-1.1094 0.68561-1.1093 1.8966 2.0358c1.0431 1.1197 2.4704 2.227 3.1718 2.4608l1.2752 0.42506-0.66908 1.7436-0.66907 1.7436-8.5438 0.17079c-8.5686 0.17129-15.14 0.38994-20.935 0.69655l-3.1059 0.16434-3.1983 4.8608-3.1983 4.8608 1.4694 3.6506c0.80817 2.0078 2.3031 5.5076 3.322 7.7773s3.1594 7.1444 4.7565 10.833c1.5972 3.6883 3.3066 7.1663 3.7989 7.729l0.89495 1.0231 0.97293-1.5389 0.97292-1.5389 0.0158 1.7211c0.008 0.94658 0.32682 2.5316 0.70696 3.5222l0.69117 1.8011-1.1074-0.68442-1.1074-0.68442 3.0922 5.7091 3.0922 5.7091-0.58021 1.512-0.5802 1.512h-1.42-1.42l-1.7318-1.9136c-1.6419-1.8142-12.053-22.366-17.145-33.847l-2.3624-5.3256-2.3305 2.7697c-1.2818 1.5233-3.4025 4.8484-4.7126 7.389-1.3102 2.5406-4.4185 7.6132-6.9075 11.272l-4.5253 6.6531-3.1839 7.2746c-3.7235 8.5075-4.6231 9.8538-6.5842 9.8538h-1.4536l-0.56291-1.4669zm33.641-58.947c0-0.25023-0.46425-0.45495-1.0317-0.45495h-1.0317v1.0926 1.0926l1.0317-0.63761c0.56743-0.35069 1.0317-0.84235 1.0317-1.0926zm50.276 55.169 0.56239-2.1506 0.82047 1.3276 0.82047 1.3276-0.50865 0.82301c-0.27976 0.45266-0.90205 0.82303-1.3829 0.82303h-0.8742l0.56239-2.1506zm0.27612-4.0395v-1.3756l0.68779 0.68778 0.68778 0.68779-0.68778 0.6878-0.68779 0.68778v-1.3756zm-79.44-23.729v-1.3756l0.6878 0.68778 0.68778 0.68779-0.68778 0.6878-0.6878 0.68778v-1.3756zm-1.0317-2.5792c0-0.28371 0.23213-0.51584 0.51584-0.51584 0.28372 0 0.51584 0.23213 0.51584 0.51584s-0.23212 0.51584-0.51584 0.51584c-0.28371 0-0.51584-0.23213-0.51584-0.51584zm-109.36-43.294c0-1.1006 2.8301-3.6476 4.053-3.6476h1.1054v1.5475 1.5475h-0.9473c-0.52102 0-1.6817 0.28179-2.5792 0.62622l-1.6319 0.62622v-0.69991zm-44.79-19.887c-0.3392-0.33919-0.61671-2.3395-0.61671-4.4452v-3.8285l1.3742-1.1405 1.3743-1.1405 1.9787 1.4972 1.9787 1.4972-1.2896 0.0328c-0.70928 0.0181-1.2346 0.381-1.1674 0.80656 0.0672 0.42557 0.0672 2.0008 0 3.5005l-0.12217 2.7268-1.4467 0.55514-1.4467 0.55513-0.6167-0.6167zm216.04-2.3362c0-0.56742 0.43686-1.0317 0.97079-1.0317 0.53394 0 1.2577 0.46426 1.6084 1.0317l0.63762 1.0317h-1.6084-1.6084v-1.0317zm-296.01-29.317l-0.08145-1.9774 0.62331 0.62331 0.62331 0.62331-0.54186 1.3541-0.54186 1.3541-0.08145-1.9774z"/>
  <metadata>
    <rdf:RDF>
      <cc:Work>
        <dc:format>image/svg+xml</dc:format>
        <dc:type rdf:resource="http://purl.org/dc/dcmitype/StillImage"/>
        <cc:license rdf:resource="http://creativecommons.org/licenses/publicdomain/"/>
        <dc:publisher>
          <cc:Agent rdf:about="http://openclipart.org/">
            <dc:title>Openclipart</dc:title>
          </cc:Agent>
        </dc:publisher>
        <dc:title>Code Commenting</dc:title>
        <dc:date>2010-04-22T06:54:32</dc:date>
        <dc:description>These are some quick sketches and doodles I made in my notebook on a flight. These are mostly shit, but hey, lets see if useful!</dc:description>
        <dc:source>https://openclipart.org/detail/49885/code-commenting-by-rejon</dc:source>
        <dc:creator>
          <cc:Agent>
            <dc:title>rejon</dc:title>
          </cc:Agent>
        </dc:creator>
        <dc:subject>
          <rdf:Bag>
            <rdf:li>black</rdf:li>
            <rdf:li>bw</rdf:li>
            <rdf:li>drawings</rdf:li>
            <rdf:li>fast</rdf:li>
            <rdf:li>rapid</rdf:li>
            <rdf:li>rejon</rdf:li>
            <rdf:li>sketch</rdf:li>
            <rdf:li>sketchbook</rdf:li>
            <rdf:li>unchecked</rdf:li>
            <rdf:li>white</rdf:li>
          </rdf:Bag>
        </dc:subject>
      </cc:Work>
      <cc:License rdf:about="http://creativecommons.org/licenses/publicdomain/">
        <cc:permits rdf:resource="http://creativecommons.org/ns#Reproduction"/>
        <cc:permits rdf:resource="http://creativecommons.org/ns#Distribution"/>
        <cc:permits rdf:resource="http://creativecommons.org/ns#DerivativeWorks"/>
      </cc:License>
    </rdf:RDF>
  </metadata>
</svg>
