<svg xmlns="http://www.w3.org/2000/svg" width="90.124" height="90.124" viewBox="0 0 90.124 90.124">
  <g id="Grupo_179" data-name="Grupo 179" transform="translate(-2755.352 -1319.72)" style="isolation: isolate">
    <path id="Caminho_88" data-name="Caminho 88" d="M2830.455,1409.844h-60.082a15.021,15.021,0,0,1-15.021-15.021v-60.082a15.021,15.021,0,0,1,15.021-15.021h60.082a15.021,15.021,0,0,1,15.021,15.021v60.082a15.021,15.021,0,0,1-15.021,15.021" transform="translate(0 0)" fill="#ffd100"/>
    <path id="Caminho_89" data-name="Caminho 89" d="M2876.791,1388h13.36l-9.523,8.1Z" transform="translate(-62.72 -35.267)" fill="#5982ff"/>
    <path id="Caminho_90" data-name="Caminho 90" d="M2888.9,1436.16a3.1,3.1,0,0,1-3.1-3.1v-20.6h-8.426v20.6a11.135,11.135,0,0,0,11.136,11.135h1.944v-8.032Z" transform="translate(-63.019 -47.897)" fill="#5982ff"/>
    <path id="Caminho_91" data-name="Caminho 91" d="M2809.149,1435.309c-4.428,0-8.018-3.06-8.018-8.206s3.59-8.207,8.018-8.207a8.209,8.209,0,0,1,0,16.413m21.728.009h-2.557a3.1,3.1,0,0,1-3.1-3.1v-16.177h-4.368a16.259,16.259,0,1,0-1.139,23.237,11.111,11.111,0,0,0,8.61,4.075l7.637.009a14.182,14.182,0,0,1-5.08-8.041" transform="translate(-19.292 -47.064)" fill="#5982ff"/>
    <path id="Caminho_92" data-name="Caminho 92" d="M2846.309,1359.82c0,1.615-1.419,2.85-3.7,2.85h-.093a5.547,5.547,0,0,1-4.329-1.743l1.327-1.234a4.38,4.38,0,0,0,2.984,1.107h.092c.792,0,1.382-.272,1.382-.889,0-.708-.553-.889-1.584-.98l-.516-.055c-2.192-.181-3.463-1.035-3.463-2.632,0-1.851,1.695-2.867,3.74-2.886h.147a4.953,4.953,0,0,1,3.833,1.688l-1.327,1.216a3.759,3.759,0,0,0-2.488-1.071h-.147c-.829.018-1.419.327-1.419.907,0,.508.387.726,1.53.817l.627.073c1.86.127,3.408.853,3.408,2.831" transform="translate(-42.78 -17.374)" fill="#5982ff"/>
    <path id="Caminho_93" data-name="Caminho 93" d="M2892.015,1355.629a3.063,3.063,0,0,1,2.229.926l1.4-1.488a4.765,4.765,0,0,0-3.629-1.67,4.647,4.647,0,1,0,0,9.293,4.765,4.765,0,0,0,3.629-1.67l-1.4-1.488a3.061,3.061,0,0,1-2.229.926,2.414,2.414,0,0,1,0-4.828" transform="translate(-68.146 -17.393)" fill="#5982ff"/>
    <path id="Caminho_94" data-name="Caminho 94" d="M2906.978,1357.207a2.011,2.011,0,0,1,2.137-1.742,1.977,1.977,0,0,1,2.083,1.742Zm6.19-1.4a4.172,4.172,0,0,0-4.053-2.451,4.656,4.656,0,1,0,.055,9.311,6.865,6.865,0,0,0,4.017-1.416l-1.234-1.325a6.316,6.316,0,0,1-2.783.635c-1.252,0-2.284-.672-2.284-1.906h6.43a4.349,4.349,0,0,0-.148-2.849" transform="translate(-77.016 -17.374)" fill="#5982ff"/>
    <path id="Caminho_95" data-name="Caminho 95" d="M2869.606,1357.207a2.012,2.012,0,0,1,2.137-1.742,1.976,1.976,0,0,1,2.082,1.742Zm6.191-1.4a4.172,4.172,0,0,0-4.054-2.451,4.656,4.656,0,1,0,.055,9.311,6.869,6.869,0,0,0,4.017-1.416l-1.234-1.325a6.317,6.317,0,0,1-2.782.635c-1.252,0-2.284-.672-2.284-1.906h6.43a4.348,4.348,0,0,0-.147-2.849" transform="translate(-57.715 -17.374)" fill="#5982ff"/>
    <path id="Caminho_96" data-name="Caminho 96" d="M2859.907,1347.972h-2.365v2.751h-1.2v2.035h1.2v7.021h2.365v-7.021h1.2v-2.035h-1.2Z" transform="translate(-52.158 -14.591)" fill="#5982ff"/>
    <path id="Caminho_97" data-name="Caminho 97" d="M2800.837,1357.656a2.424,2.424,0,1,1,2.377-2.414,2.358,2.358,0,0,1-2.377,2.414m.24-7.079a3.26,3.26,0,0,0-2.432,1.017v-3.622h-2.34v11.822a2.275,2.275,0,0,0,1.8-.888,4.985,4.985,0,0,0,2.589.964c.125.011.25.017.378.017h0a4.659,4.659,0,0,0,0-9.311" transform="translate(-21.151 -14.591)" fill="#5982ff"/>
    <path id="Caminho_98" data-name="Caminho 98" d="M2778.726,1360.438a2.424,2.424,0,0,1,0-4.847,2.424,2.424,0,0,1,0,4.847m3-5.844a4.821,4.821,0,0,0-3.236-1.235,4.659,4.659,0,0,0,0,9.311h0c.128,0,.254-.007.378-.017a4.986,4.986,0,0,0,2.589-.964,2.274,2.274,0,0,0,1.8.888v-7.982Z" transform="translate(-9.636 -17.374)" fill="#5982ff"/>
    <path id="Caminho_99" data-name="Caminho 99" d="M2821.632,1360.438a2.424,2.424,0,0,1,0-4.847,2.424,2.424,0,0,1,0,4.847m3-5.844a4.82,4.82,0,0,0-3.236-1.235,4.659,4.659,0,0,0,0,9.311h0c.128,0,.254-.007.378-.017a4.986,4.986,0,0,0,2.589-.964,2.275,2.275,0,0,0,1.8.888v-7.982Z" transform="translate(-31.796 -17.374)" fill="#5982ff"/>
  </g>
</svg>
